<svg width="1408" height="735" viewBox="0 0 1408 735" fill="none" xmlns="http://www.w3.org/2000/svg">
<ellipse cx="704" cy="444.5" rx="704" ry="273.5" fill="#79C55F"/>
<g clip-path="url(#clip0_15:2)">
<g opacity="0.8">
<path opacity="0.8" d="M546.659 61.4252C557 76.5511 564.934 120.603 567.145 133.877L585.63 133.483C584.674 122.079 563.169 75.693 557.191 62.9654C553.865 62.4215 550.314 61.8902 546.659 61.4252Z" fill="#2E0808"/>
<path opacity="0.8" d="M315.953 51.5835L315.736 63.6138L323.923 63.7751L324.141 51.7448L315.953 51.5835Z" fill="#C9CCD6"/>
<path opacity="0.1" d="M315.953 51.5835L315.882 55.5006C316.458 55.6844 317.056 55.7805 317.657 55.7862L324.067 55.8554L324.141 51.7448L315.953 51.5835Z" fill="black"/>
<path opacity="0.8" d="M328.153 21.1631L320.422 21.0108C318.576 20.9748 316.762 21.5142 315.211 22.56C313.66 23.6057 312.444 25.1103 311.718 26.8811C309.348 32.6495 307.265 41.8553 312.135 51.1732C312.679 52.2142 313.479 53.0851 314.453 53.6959C315.428 54.3068 316.54 54.6355 317.677 54.6483L327.545 54.7545L328.153 21.1631Z" fill="#C9CCD6"/>
<path opacity="0.8" d="M336.128 38.1219C336.296 28.8459 332.725 21.2532 328.153 21.1631C323.581 21.073 319.738 28.5197 319.57 37.7957C319.402 47.0717 322.973 54.6644 327.545 54.7545C332.117 54.8446 335.96 47.3979 336.128 38.1219Z" fill="#E0E0E0"/>
<path opacity="0.8" d="M388.685 53.1587L388.494 63.6915L396.682 63.8528L396.873 53.3199L388.685 53.1587Z" fill="#C9CCD6"/>
<path opacity="0.1" d="M388.685 53.1587L388.625 56.5064C389.2 56.6902 389.798 56.7864 390.399 56.792L396.809 56.8613L396.873 53.32L388.685 53.1587Z" fill="black"/>
<path opacity="0.8" d="M400.885 22.7383L393.154 22.586C391.308 22.55 389.493 23.0894 387.943 24.1352C386.392 25.181 385.176 26.6855 384.45 28.4564C382.08 34.2247 379.996 43.4305 384.866 52.7484C385.41 53.7894 386.211 54.6603 387.185 55.2711C388.159 55.882 389.272 56.2107 390.409 56.2235L400.277 56.3297L400.885 22.7383Z" fill="#C9CCD6"/>
<path opacity="0.8" d="M408.858 39.6971C409.026 30.4211 405.456 22.8284 400.883 22.7383C396.311 22.6483 392.469 30.0949 392.301 39.3709C392.133 48.6469 395.703 56.2396 400.275 56.3297C404.848 56.4197 408.69 48.9731 408.858 39.6971Z" fill="#E0E0E0"/>
<path opacity="0.8" d="M398.708 28.8369C398.708 28.8369 401.752 29.4067 400.088 33.58C399.209 35.6067 398.555 37.7321 398.141 39.9144C398.141 39.9144 395.057 41.5105 395.278 36.0343C395.5 30.5581 398.708 28.8369 398.708 28.8369Z" fill="#C9CCD6"/>
<path opacity="0.8" d="M752.958 275.909C753.511 245.408 732.33 220.256 705.651 219.731C678.971 219.205 656.895 243.505 656.343 274.006C655.791 304.507 676.971 329.658 703.651 330.184C730.33 330.71 752.406 306.41 752.958 275.909Z" fill="black"/>
<path opacity="0.1" d="M687.487 222.819C712.735 225.091 732.325 249.482 731.793 278.829C731.365 302.485 717.988 322.407 699.56 329.914C674.312 327.642 654.723 303.251 655.254 273.904C655.683 250.248 669.059 230.326 687.487 222.819Z" fill="black"/>
<path opacity="0.8" d="M367.955 147.58C368.488 118.128 351.366 93.9058 329.71 93.4792C308.055 93.0526 290.068 116.583 289.535 146.035C289.001 175.488 306.124 199.71 327.779 200.137C349.434 200.563 367.422 177.033 367.955 147.58Z" fill="black"/>
<path opacity="0.1" d="M340.629 95.9288C356.773 102.75 368.277 123.43 367.838 147.651C367.369 173.535 353.42 194.842 335.347 199.337C319.203 192.516 307.699 171.836 308.138 147.614C308.607 121.73 322.557 100.423 340.629 95.9288Z" fill="black"/>
<path opacity="0.8" d="M476.239 138.322L475.862 118.95C475.862 118.95 479.652 110.672 483.305 109.984C486.958 109.297 495.336 108.987 495.336 108.987C495.336 108.987 501.383 136.919 496.865 145.184C492.347 153.448 476.239 138.322 476.239 138.322Z" fill="#2E0808"/>
<path opacity="0.1" d="M476.239 138.322L475.862 118.95C475.862 118.95 479.652 110.672 483.305 109.984C486.958 109.297 495.336 108.987 495.336 108.987C495.336 108.987 501.383 136.919 496.865 145.184C492.347 153.448 476.239 138.322 476.239 138.322Z" fill="black"/>
<path opacity="0.8" d="M543.416 137.557C543.416 137.557 546.158 110.76 532.022 109.999C530.204 109.901 528.385 109.819 526.575 109.6C516.791 108.417 490.098 105.739 493.185 112.172C493.185 112.172 499.131 135.641 494.657 141.438L543.416 137.557Z" fill="#2E0808"/>
<path opacity="0.8" d="M342.098 183.38L323.119 183.575C323.119 183.575 320.504 147.073 319.464 144.204C318.424 141.336 318.125 127.661 321.709 125.738C325.293 123.815 337.209 121.63 337.209 121.63L345.567 142.583L345.909 161.385L342.098 183.38Z" fill="#2E0808"/>
<path opacity="0.1" d="M342.098 183.38L323.119 183.575C323.119 183.575 320.504 147.073 319.464 144.204C318.424 141.336 318.125 127.661 321.709 125.738C325.293 123.815 337.209 121.63 337.209 121.63L345.567 142.583L345.909 161.385L342.098 183.38Z" fill="black"/>
<path opacity="0.8" d="M389.044 123.79L389.202 119.734C389.215 119.414 389.164 119.095 389.054 118.796C388.944 118.497 388.776 118.226 388.56 117.997C388.345 117.769 388.088 117.589 387.803 117.469C387.519 117.349 387.214 117.29 386.907 117.298C377.498 117.527 343.259 118.562 337.209 121.63C337.209 121.63 342.839 172.573 335.388 184.529L337.107 225.286L421.014 220.389L389.044 123.79Z" fill="#2E0808"/>
<path opacity="0.1" d="M396.757 59.7479C394.436 59.463 391.673 59.1466 388.582 58.8351L388.495 63.6916L396.682 63.8529L396.757 59.7479Z" fill="black"/>
<path opacity="0.1" d="M315.747 62.9989L315.736 63.6138L323.923 63.7751L323.99 60.0801C321.137 60.6912 318.367 61.6717 315.747 62.9989V62.9989Z" fill="black"/>
<path opacity="0.8" d="M272.479 183.289L284.849 183.721L311.295 135.762L315.71 127.756L312.805 107.195L310.2 112.111L272.479 183.289Z" fill="#C9CCD6"/>
<path opacity="0.8" d="M385.457 125.9L390.406 133.972L406.024 112.796L413.172 103.095L409.092 97.1317L405.815 101.122L385.457 125.9Z" fill="#C9CCD6"/>
<path opacity="0.1" d="M405.814 101.122C405.785 101.531 405.756 101.952 405.721 102.379L406.023 112.796L413.172 103.095L409.092 97.1312L405.814 101.122Z" fill="black"/>
<path opacity="0.1" d="M310.2 112.111L311.295 135.762L315.71 127.756L312.805 107.195L310.2 112.111Z" fill="black"/>
<path opacity="0.8" d="M420.027 116.521C420.027 116.521 426.998 69.0421 404.887 61.487C404.603 61.392 404.312 61.3234 404.016 61.2822C398.91 60.5369 351.299 53.8589 326.4 60.1901C326.4 60.1901 309.431 62.5137 309.441 72.0064L314.801 188.11L326.992 188.35L324.377 111.6C324.377 111.6 319.159 78.0832 328.844 75.9958C338.529 73.9084 382.447 70.9765 397.83 75.836C397.83 75.836 409.159 73.4012 406.814 102.402L407.26 117.979L420.027 116.521Z" fill="#C9CCD6"/>
<path opacity="0.8" d="M382.654 129.929C382.575 128.671 382.808 127.413 383.331 126.276C383.853 125.139 384.648 124.162 385.638 123.438C389.099 120.801 399.712 115.172 399.712 115.172L403.118 115.524L412.874 142.2L411.173 198.41L392.32 221.817L382.654 129.929Z" fill="#2E0808"/>
<path opacity="0.1" d="M382.654 129.929C382.575 128.671 382.808 127.413 383.331 126.276C383.853 125.139 384.648 124.162 385.638 123.438C389.099 120.801 399.712 115.172 399.712 115.172L403.118 115.524L412.874 142.2L411.173 198.41L392.32 221.817L382.654 129.929Z" fill="black"/>
<path opacity="0.8" d="M455.094 190.304L455.775 132.604C455.775 132.604 457.818 110.242 444.998 109.609C444.998 109.609 414.739 109.243 401.52 113.435C401.102 113.566 400.718 113.793 400.395 114.098C400.072 114.403 399.818 114.78 399.652 115.2C399.485 115.62 399.411 116.074 399.434 116.528C399.457 116.982 399.576 117.425 399.784 117.825C402.315 122.628 406.5 135.291 408.045 167.592L407.419 202.18L455.094 190.304Z" fill="#2E0808"/>
<path opacity="0.8" d="M390.608 225.912L445.676 225.658L445.731 225.659L472.794 225.538L470.339 187.757L455.318 188.031L407.354 198.192L392.32 221.817L390.608 225.912Z" fill="#2E0808"/>
<path opacity="0.1" d="M390.608 225.912L445.676 225.658L445.731 225.659L472.794 225.538L470.339 187.757L455.318 188.031L407.354 198.192L392.32 221.817L390.608 225.912Z" fill="black"/>
<path opacity="0.8" d="M390.608 225.912L445.676 225.658L447.039 200.398L407.354 198.192L392.32 221.817L390.608 225.912Z" fill="#2E0808"/>
<path opacity="0.1" d="M445.73 225.66L472.794 225.538L470.339 187.757C470.339 187.757 461.623 201.682 447.039 200.398L445.73 225.66Z" fill="#E0E0E0"/>
<path opacity="0.8" d="M251.025 252.352C251.92 263.191 259.32 261.628 259.32 261.628L260.698 261.524L274.357 260.501L274.115 243.694C269.493 243.326 264.845 243.525 260.268 244.287C255.133 245.291 250.626 247.537 251.025 252.352Z" fill="#C9CCD6"/>
<path opacity="0.1" d="M251.025 252.352C251.92 263.191 259.32 261.628 259.32 261.628L260.698 261.524C262.22 259.129 263.028 256.317 263.018 253.443C263.192 250.144 262.215 246.892 260.268 244.287C255.133 245.291 250.626 247.537 251.025 252.352Z" fill="black"/>
<path opacity="0.8" d="M441.334 146.083C441.016 163.639 450.86 178.071 463.32 178.316C475.781 178.562 486.14 164.528 486.457 146.972C486.775 129.416 476.932 114.985 464.471 114.739C452.011 114.494 441.652 128.527 441.334 146.083ZM449.848 148.339C450.078 135.604 457.963 125.432 467.46 125.619C476.956 125.806 484.467 136.282 484.236 149.017C484.006 161.752 476.121 171.924 466.624 171.736C457.128 171.549 449.617 161.074 449.848 148.339V148.339Z" fill="black"/>
<path opacity="0.8" d="M462.627 156.28L451.878 166.889L448.232 157.135L463.685 148.137L462.627 156.28Z" fill="black"/>
<path opacity="0.8" d="M449.009 48.9086L439.799 49.8944L436.315 54.0512L441.043 78.4072L451.316 117.7L458.035 144.67L462.809 161.06L465.647 182.684L468.608 197.569L478.114 207.866L498.254 184L501.631 175.979L509.681 159.626L489.834 149.461L467.909 147.008L458.074 119.181L450.257 87.0133L449.009 48.9086Z" fill="#1D0C0C"/>
<path opacity="0.8" d="M632.777 168.175L642.882 273.551L491.803 263.93L510.205 212.653L539.674 193.489L473.059 193.316L473.218 164.462L500.256 158.92L554.559 155.433L595.35 154.338L634.048 168.39" fill="#2E0808"/>
<path opacity="0.1" d="M632.777 168.175L642.882 273.551L491.803 263.93L510.205 212.653L539.674 193.489L473.059 193.316L473.218 164.462L500.256 158.92L554.559 155.433L595.35 154.338L634.048 168.39" fill="black"/>
<path opacity="0.8" d="M424.31 268.888C423.837 295.015 431.728 318.963 454.868 316.814C484.007 316.737 486.667 296.253 487.14 270.126C487.613 243.999 473.9 224.278 456.55 223.937C439.2 223.595 424.783 242.762 424.31 268.888Z" fill="black"/>
<path opacity="0.1" d="M424.127 268.929C424.494 248.701 433.219 232.649 445.192 226.588C460.365 229.909 471.743 248.41 471.311 272.247C470.923 293.658 469.063 311.276 452.368 316.982C431.018 317.361 423.67 294.163 424.127 268.929Z" fill="black"/>
<path opacity="0.8" d="M395.378 227.299L404.067 238.084L388.132 234.906L376.39 223.217L366.135 200.774L351.29 190.878L314.378 195.374L280.281 196.05L267.913 184.149L281.981 182.435L296.197 182.379L331.901 182.24L374.391 181.897L382.673 206.324L388.992 223.128L395.378 227.299Z" fill="#1D0C0C"/>
<path opacity="0.8" d="M272.4 268.151C273.105 269.304 296.874 273.571 296.874 273.571L362.509 287.394L475.655 291.332L489.148 279.825L496.101 281.255L496.384 281.312L589.248 300.404L590.769 300.206L616.236 296.932L749.245 279.823L748.124 259.707L747.46 247.836L746.088 223.187L744.928 216.706L733.136 215.346L727.627 214.708L641.679 204.773L630.443 203.475L624.144 202.747L562.802 192.808L473.061 193.318L473.218 164.462L439.799 49.894C431.953 51.0665 432.034 56.5756 432.034 56.5756L460.294 164.396L459.467 230.259C396.531 235.637 394.765 221.324 384.738 225.939L373.454 185.66L267.915 184.151C263.632 189.38 272.4 268.151 272.4 268.151Z" fill="#2E0808"/>
<path opacity="0.8" d="M535.306 213.527L500.47 287.832L489.118 291.403L486.612 279.206L499.919 237.89L513.273 214.042L535.306 213.527Z" fill="#2E0808"/>
<path opacity="0.15" d="M535.306 213.527L500.47 287.832L489.118 291.403L486.612 279.206L499.919 237.89L513.273 214.042L535.306 213.527Z" fill="black"/>
<path opacity="0.8" d="M616.232 297.706C616.949 258.086 590.385 225.433 556.898 224.774C523.412 224.114 495.684 255.698 494.967 295.317C494.249 334.937 520.814 367.589 554.301 368.249C587.787 368.908 615.515 337.325 616.232 297.706Z" fill="black"/>
<path opacity="0.1" d="M535.192 228.823C566.88 231.752 591.449 263.418 590.759 301.539C590.202 332.267 573.397 358.156 550.261 367.923C518.572 364.994 494.004 333.329 494.694 295.208C495.251 264.48 512.056 238.59 535.192 228.823Z" fill="black"/>
<path opacity="0.8" d="M720.398 174.27L723.133 189.086L731.501 234.479L771.06 231.271C771.06 231.271 773.561 223.729 767.428 220.76C767.428 220.76 765.862 195.025 758.711 186.791C757.945 185.853 756.975 185.12 755.883 184.651L720.398 174.27Z" fill="#2E0808"/>
<path opacity="0.1" d="M723.133 189.086L731.501 234.479L771.06 231.271C771.06 231.271 773.561 223.728 767.428 220.76C767.428 220.76 765.862 195.025 758.711 186.791L723.133 189.086Z" fill="#E0E0E0"/>
<path opacity="0.8" d="M631.352 190.214C626.098 199.029 636.979 281.452 636.979 281.452L734.263 266.658L732.11 194.665C730.34 181.718 723.091 180.06 723.091 180.06C689.21 161.355 610.676 156.009 610.676 156.009C538.938 157.444 473.218 178.174 473.218 178.174C554.966 166.684 631.352 190.214 631.352 190.214Z" fill="#2E0808"/>
<path opacity="0.1" d="M636.979 267.741L734.263 252.947L732.11 180.953C730.34 168.007 723.091 166.349 723.091 166.349C723.091 166.349 652.438 157.929 631.352 176.502C626.098 185.318 636.979 267.741 636.979 267.741Z" fill="black"/>
<path opacity="0.8" d="M647.317 263.197L728.664 250.542L726.886 189.118C725.41 178.073 719.35 176.661 719.35 176.661C719.35 176.661 660.277 169.501 642.641 185.355C638.245 192.878 647.317 263.197 647.317 263.197Z" fill="#2E0808"/>
<path opacity="0.1" d="M666.001 213.064C666.212 201.43 661.413 191.901 655.284 191.78C649.154 191.659 644.014 200.993 643.803 212.627C643.593 224.261 648.391 233.791 654.521 233.912C660.65 234.032 665.79 224.699 666.001 213.064Z" fill="black"/>
<path opacity="0.8" d="M666.011 212.495C666.222 200.861 661.424 191.331 655.294 191.211C649.164 191.09 644.024 200.423 643.814 212.058C643.603 223.692 648.401 233.222 654.531 233.342C660.661 233.463 665.801 224.129 666.011 212.495Z" fill="#C9CCD6"/>
<path opacity="0.8" d="M653.739 196.686C653.739 196.686 658.274 197.534 655.795 203.751C654.485 206.77 653.511 209.935 652.894 213.186C652.894 213.186 648.301 215.564 648.63 207.407C648.96 199.249 653.739 196.686 653.739 196.686Z" fill="#E0E0E0"/>
<path opacity="0.1" d="M724.922 205.872C725.119 195 720.635 186.096 714.907 185.983C709.18 185.87 704.377 194.592 704.18 205.463C703.983 216.335 708.467 225.239 714.194 225.352C719.922 225.465 724.725 216.743 724.922 205.872Z" fill="black"/>
<path opacity="0.8" d="M724.932 205.303C725.129 194.431 720.645 185.527 714.918 185.414C709.19 185.301 704.387 194.023 704.19 204.894C703.993 215.765 708.477 224.67 714.205 224.783C719.933 224.896 724.735 216.174 724.932 205.303Z" fill="#C9CCD6"/>
<path opacity="0.8" d="M713.387 189.507C713.387 189.507 717.923 190.356 715.444 196.572C714.134 199.591 713.16 202.757 712.543 206.008C712.543 206.008 707.949 208.385 708.279 200.228C708.609 192.071 713.387 189.507 713.387 189.507Z" fill="#E0E0E0"/>
<path opacity="0.1" d="M667.964 195.255C668.549 203.053 671.145 260.816 671.145 260.816L677.338 259.862L680.782 259.337L685.371 258.63L685.924 258.544L703.999 255.768L701.548 194.499C701.468 192.531 700.666 190.67 699.308 189.302C697.949 187.934 696.138 187.164 694.249 187.15C694.069 187.152 693.884 187.154 693.698 187.168C692.451 187.257 691.106 187.367 689.706 187.499C689.115 187.556 688.519 187.613 687.911 187.68C686.177 187.863 684.387 188.089 682.63 188.357C681.732 188.498 680.85 188.646 679.979 188.806C678.505 189.084 677.08 189.392 675.763 189.748C674.868 189.986 674.017 190.249 673.236 190.535C669.961 191.701 667.809 193.242 667.964 195.255Z" fill="black"/>
<path opacity="0.8" d="M694.249 187.15L696.53 256.002L698.537 255.854L696.28 187.464C695.621 187.261 694.937 187.156 694.249 187.15Z" fill="#2E0808"/>
<path opacity="0.8" d="M687.911 187.68L689.956 257.2L693.051 257.261L689.705 187.499C689.115 187.556 688.519 187.613 687.911 187.68Z" fill="#2E0808"/>
<path opacity="0.8" d="M679.979 188.806L683.924 258.602L685.927 258.641L685.924 258.544L682.63 188.357C681.732 188.498 680.85 188.646 679.979 188.806Z" fill="#2E0808"/>
<path opacity="0.8" d="M673.236 190.535L677.338 259.862L677.346 259.993L680.808 259.68L680.782 259.337L675.763 189.748C674.868 189.986 674.017 190.249 673.236 190.535Z" fill="#2E0808"/>
<path opacity="0.1" d="M746.272 245.591C746.272 245.591 753.611 209.712 738.361 207.561C723.11 205.409 672.823 208.263 674.056 223.095C675.289 237.928 676.519 260.449 676.519 260.449L686.934 258.234C686.934 258.234 679.769 224.205 691.937 223.163C704.106 222.121 733.919 219.149 733.919 219.149C733.919 219.149 741.996 217.884 736.818 247.541L746.272 245.591Z" fill="black"/>
<path opacity="0.8" d="M746.21 249.007C746.21 249.007 753.59 210.851 738.34 208.699C723.09 206.548 672.802 209.402 674.035 224.234C675.268 239.067 676.498 261.588 676.498 261.588L686.913 259.373C686.913 259.373 679.748 225.343 691.917 224.302C704.085 223.26 733.898 220.287 733.898 220.287C733.898 220.287 741.934 221.3 736.756 250.957L746.21 249.007Z" fill="#C9CCD6"/>
<path opacity="0.8" d="M475.655 291.332L489.119 291.403C499.762 246.431 516.466 218.664 516.466 218.664C521.979 215.731 581.65 217.288 581.65 217.288C587.819 218.549 589.086 239.077 589.086 239.077C589.086 239.077 583.722 243.716 588.759 246.857C591.011 248.257 598.495 248.66 607.134 248.369C617.859 248 630.368 246.549 636.852 244.575C648.57 241.007 639.417 233.804 639.417 233.804C639.417 233.804 637.821 231.494 636.956 218.947C636.34 211.62 634.201 204.521 630.687 198.143C630.201 197.262 629.893 196.784 629.893 196.784C629.291 196.164 628.576 195.677 627.789 195.352C612.485 188.33 536.764 193.24 536.764 193.24L508.577 201.991C507.796 202.301 506.563 204.338 505.03 207.6C495.818 227.233 475.655 291.332 475.655 291.332Z" fill="#2E0808"/>
<path opacity="0.1" d="M475.655 291.332L489.119 291.403C499.762 246.431 516.466 218.664 516.466 218.664C521.979 215.731 581.65 217.288 581.65 217.288C587.819 218.549 589.086 239.077 589.086 239.077C589.086 239.077 583.722 243.716 588.759 246.857C591.011 248.257 598.495 248.66 607.134 248.369C617.859 248 630.368 246.549 636.852 244.575C648.57 241.007 639.417 233.804 639.417 233.804C639.417 233.804 637.821 231.494 636.956 218.947C636.34 211.62 634.201 204.521 630.687 198.143C630.201 197.262 629.893 196.784 629.893 196.784C629.291 196.164 628.576 195.677 627.789 195.352C612.485 188.33 536.764 193.24 536.764 193.24L508.577 201.991C507.796 202.301 506.563 204.338 505.03 207.6C495.818 227.233 475.655 291.332 475.655 291.332Z" fill="black"/>
<path opacity="0.8" d="M505.03 221.311C531.087 211.339 602.269 218.306 602.269 218.306C609.962 211.703 624.212 211.539 630.687 211.855C630.201 210.974 629.893 210.495 629.893 210.495C629.291 209.875 628.576 209.389 627.789 209.064C612.485 202.042 536.764 206.952 536.764 206.952L508.577 215.703C507.796 216.012 506.563 218.05 505.03 221.311Z" fill="#2E0808"/>
<path opacity="0.8" d="M598.031 207.359C599.562 213.273 605.866 236.942 605.866 236.942C606.499 240.723 606.922 244.538 607.134 248.369C617.859 248 630.368 246.549 636.852 244.575C648.57 241.007 639.417 233.804 639.417 233.804C639.417 233.804 637.821 231.494 636.956 218.947C636.297 211.085 633.878 203.493 629.893 196.784C629.291 196.164 628.576 195.677 627.789 195.353C617.63 197.641 596.873 202.882 598.031 207.359Z" fill="#2E0808"/>
<path opacity="0.1" d="M598.031 207.359C599.562 213.273 605.866 236.942 605.866 236.942C606.499 240.723 606.922 244.538 607.134 248.369C617.859 248 630.368 246.549 636.852 244.575C648.57 241.007 639.417 233.804 639.417 233.804C639.417 233.804 637.821 231.494 636.956 218.947C636.297 211.085 633.878 203.493 629.893 196.784C629.291 196.164 628.576 195.677 627.789 195.353C617.63 197.641 596.873 202.882 598.031 207.359Z" fill="#E0E0E0"/>
<path opacity="0.8" d="M439.799 49.894L473.218 164.462L612.567 143.429L594.156 74.5776C594.156 74.5776 591.301 58.8588 584.089 57.5776C584.089 57.5776 472.692 35.1641 439.799 49.894ZM455.309 67.8555C450.812 52.3891 517.016 60.1007 517.016 60.1007C525.93 59.3821 536.673 60.1633 546.659 61.4251C550.314 61.8901 553.865 62.4214 557.191 62.9654C564.612 64.1823 570.912 65.4796 574.681 66.3C577.079 66.82 578.455 67.1489 578.455 67.1489C591.615 71.6798 598.089 128.762 598.089 128.762C599.072 134.762 592.273 133.346 592.273 133.346L591.83 133.355L585.63 133.483L567.145 133.877L477.013 135.775C471.702 135.101 471.001 128.537 471.001 128.537C468.221 123.783 455.309 67.8555 455.309 67.8555H455.309Z" fill="#2E0808"/>
<path opacity="0.8" d="M591.83 133.355L592.273 133.347C592.273 133.347 599.073 134.762 598.089 128.762C598.089 128.762 591.615 71.6798 578.455 67.149C578.455 67.149 577.08 66.82 574.681 66.3C579.313 76.1762 594.126 109.975 591.83 133.355Z" fill="#2E0808"/>
<path opacity="0.1" d="M591.83 133.355L592.273 133.347C592.273 133.347 599.073 134.762 598.089 128.762C598.089 128.762 591.615 71.6798 578.455 67.149C578.455 67.149 577.08 66.82 574.681 66.3C579.313 76.1762 594.126 109.975 591.83 133.355Z" fill="black"/>
<path opacity="0.1" d="M577.06 273.538C577.823 275.088 578.994 276.379 580.436 277.26C581.877 278.141 583.53 278.575 585.199 278.511L587.98 278.44L614.235 277.778L623.697 277.537L632.444 276.952L748.124 259.707L747.46 247.836L734.16 249.556L728.659 250.268L647.015 260.814L636.271 262.202L631.061 262.874L609.044 262.275L585.21 261.624C584.005 261.587 582.805 261.804 581.682 262.26C579.62 263.07 577.937 264.677 576.981 266.747C576.482 267.806 576.228 268.972 576.242 270.152C576.256 271.332 576.536 272.492 577.06 273.538V273.538Z" fill="black"/>
<path opacity="0.8" d="M577.04 274.676C577.803 276.227 578.974 277.518 580.415 278.399C581.857 279.279 583.509 279.713 585.179 279.649L623.676 278.676L632.423 278.091L755.785 259.699L765.482 258.255L770.766 257.465C781.178 255.392 778.279 244.513 778.279 244.513C777.642 239.563 759.892 234.657 754.07 234.736C750.154 234.784 749.494 241.064 749.485 245.182C749.481 247.198 749.629 248.693 749.629 248.693L743.86 249.439L631.04 264.013L585.19 262.762C583.49 262.697 581.809 263.146 580.349 264.055C578.889 264.964 577.712 266.295 576.961 267.886C576.461 268.944 576.208 270.111 576.221 271.291C576.235 272.471 576.516 273.631 577.04 274.676V274.676Z" fill="#C9CCD6"/>
<path opacity="0.1" d="M762.314 241.731C762.314 241.731 757.288 247.897 749.629 248.695C749.629 248.695 752.849 241.734 762.314 241.731Z" fill="black"/>
<path opacity="0.1" d="M763.268 259.406C763.268 259.406 779.468 259.345 779.303 268.455C779.138 277.564 768.922 278.882 768.922 278.882L623.746 305.069L582.612 305.018C582.612 305.018 568.454 292.778 583.47 287.758L624.934 289.714L763.33 266.051C763.33 266.051 759.783 260.856 763.268 259.406Z" fill="black"/>
<path opacity="0.8" d="M582.591 306.156L623.723 306.209L752.809 282.923L762.254 281.218L768.899 280.022C768.899 280.022 779.118 278.703 779.283 269.593C779.401 263.057 771.085 261.242 766.382 260.739C764.534 260.543 763.245 260.546 763.245 260.546C759.763 261.992 763.311 267.188 763.311 267.188L758.272 268.052L624.913 290.855L583.45 288.899C568.435 293.917 582.591 306.156 582.591 306.156Z" fill="#C9CCD6"/>
<path opacity="0.8" d="M751.211 251.764L742.732 247.61L738.368 247.334L738.038 285.677L751.554 283.096L757.263 279.411L760.281 263.523C760.281 263.523 759.31 256.859 758.774 256.279C758.239 255.699 751.211 251.764 751.211 251.764Z" fill="#C9CCD6"/>
<path opacity="0.1" d="M751.211 251.764L742.732 247.61L738.368 247.334L738.038 285.677L751.554 283.096L757.263 279.411L760.281 263.523C760.281 263.523 759.31 256.859 758.774 256.279C758.239 255.699 751.211 251.764 751.211 251.764Z" fill="black"/>
<path opacity="0.1" d="M752.809 282.923C752.703 283.052 752.648 283.119 752.648 283.119L762.142 281.404C762.181 281.342 762.22 281.28 762.254 281.218C767.395 272.93 767.944 266.129 766.382 260.739C764.534 260.543 763.245 260.546 763.245 260.546C759.763 261.992 763.311 267.188 763.311 267.188L758.272 268.052C758.474 275.562 753.753 281.757 752.809 282.923Z" fill="black"/>
<path opacity="0.1" d="M739.458 247.354C741.046 248.029 742.513 248.724 743.86 249.44C749.923 252.635 753.643 256.159 755.785 259.699L765.482 258.255C761.454 249.086 751.519 244.744 751.519 244.744L749.485 245.182L739.458 247.354Z" fill="black"/>
<path opacity="0.8" d="M750.429 244.724C750.429 244.724 776.794 256.255 761.05 281.384L751.554 283.096C751.554 283.096 770.7 261.071 738.368 247.334L750.429 244.724Z" fill="#C9CCD6"/>
<path opacity="0.8" d="M686.887 255.813L677.068 255.239L677.96 296.454L693.845 293.73L700.638 290.446L703.88 282.347L706.211 274.229L701.069 266.724L695.14 262.43L686.887 255.813Z" fill="#C9CCD6"/>
<path opacity="0.1" d="M686.887 255.813L677.068 255.239L677.96 296.454L693.845 293.73L700.638 290.446L703.88 282.347L706.211 274.229L701.069 266.724L695.14 262.43L686.887 255.813Z" fill="black"/>
<path opacity="0.8" d="M692.324 277.183C692.408 272.571 690.358 268.791 687.745 268.739C685.132 268.688 682.946 272.385 682.863 276.996C682.779 281.608 684.83 285.389 687.442 285.44C690.055 285.491 692.241 281.795 692.324 277.183Z" fill="#C9CCD6"/>
<path opacity="0.8" d="M732.507 289.314C732.836 289.463 733.132 289.683 733.376 289.958C733.619 290.234 733.804 290.56 733.919 290.915C734.034 291.27 734.076 291.646 734.043 292.019C734.01 292.392 733.902 292.754 733.726 293.081C732.617 295.152 731.281 297.833 731.389 298.551C731.572 299.765 728.997 298.717 728.661 298.426C728.325 298.135 723.612 298.327 723.4 294.976C723.373 293.966 723.601 292.966 724.06 292.075C724.519 291.185 725.194 290.436 726.017 289.902L725.058 282.55L731.55 282.108L731.361 288.797L732.507 289.314Z" fill="black"/>
<path opacity="0.1" d="M732.507 289.314C732.836 289.463 733.132 289.683 733.376 289.958C733.619 290.234 733.804 290.56 733.919 290.915C734.034 291.27 734.076 291.646 734.043 292.019C734.01 292.392 733.902 292.754 733.726 293.081C732.617 295.152 731.281 297.833 731.389 298.551C731.572 299.765 728.997 298.717 728.661 298.426C728.325 298.135 723.612 298.327 723.4 294.976C723.373 293.966 723.601 292.966 724.06 292.075C724.519 291.185 725.194 290.436 726.017 289.902L725.058 282.55L731.55 282.108L731.361 288.797L732.507 289.314Z" fill="black"/>
<path opacity="0.1" d="M730.74 289.141C730.74 289.141 728.415 296.926 729.365 297.23C730.315 297.533 730.74 289.141 730.74 289.141Z" fill="black"/>
<path opacity="0.1" d="M728.318 287.242C728.318 287.242 725.993 295.027 726.943 295.331C727.893 295.634 728.318 287.242 728.318 287.242Z" fill="black"/>
<path opacity="0.8" d="M702.587 263.144L705.802 286.753C705.802 286.753 710.317 286.198 712.811 285.689C713.358 285.622 713.89 285.461 714.386 285.213C714.514 285.085 714.782 285.101 715.135 285.182L715.141 285.182C716.348 285.463 718.49 286.553 718.927 285.679C718.959 285.611 719 285.548 719.05 285.493L719.056 285.487C719.49 285.012 720.314 285.381 721.114 285.522C721.542 285.643 721.998 285.589 722.389 285.371C723.068 284.917 724.414 285.695 725.523 285.968C726.224 286.141 726.831 286.119 727.121 285.464C727.233 285.252 727.39 285.07 727.582 284.933C727.773 284.797 727.992 284.709 728.222 284.677L728.228 284.677C729.28 284.424 730.745 284.641 731.595 284.47C731.929 284.408 732.161 284.282 732.241 284.044C732.415 283.535 733.358 283.309 734.366 283.129C735.587 282.908 736.901 282.758 737.008 282.242C737.039 282.071 737.16 282 737.34 281.997C738.016 282.116 738.68 282.301 739.323 282.549L739.329 282.549C739.872 282.702 740.325 282.717 740.464 282.31C740.614 281.863 741.24 281.926 741.952 282.123C742.528 282.282 743.163 282.528 743.652 282.657C744.092 282.768 744.408 282.792 744.467 282.576C744.66 281.823 746.993 283.577 747.566 282.068C748.14 280.559 755.784 270.651 746.376 257.366C746.376 257.366 743.763 257.502 741.764 257.839C741.1 257.92 740.45 258.097 739.832 258.365C739.821 258.365 739.816 258.37 739.805 258.376C738.659 258.686 737.474 258.805 736.293 258.728C735.615 258.723 734.945 258.875 734.33 259.173C734.088 259.306 733.893 259.516 733.773 259.772C733.454 260.489 732.753 260.623 731.99 260.562C730.959 260.48 729.82 260.047 729.396 260.255C729.384 260.262 729.371 260.267 729.357 260.271C728.587 260.598 725.738 260.212 725.244 260.697C725.229 260.711 725.216 260.726 725.204 260.742C724.991 261.057 723.878 260.699 722.74 260.517L722.735 260.517C722.357 260.4 721.959 260.369 721.568 260.425C721.177 260.481 720.802 260.624 720.468 260.842C719.96 261.247 719.32 261.431 718.685 261.354C717.913 261.28 717.136 261.297 716.368 261.405C716.189 261.452 716.028 261.554 715.904 261.698C715.43 262.287 714.323 262.185 713.334 262.217C712.827 262.185 712.322 262.307 711.881 262.57C711.722 262.682 711.542 262.756 711.353 262.787C709.884 262.898 708.408 262.793 706.968 262.473L702.587 263.144Z" fill="black"/>
<path opacity="0.1" d="M741.952 282.122C742.528 282.282 743.162 282.528 743.652 282.657C751.259 270.846 745.201 261.643 741.764 257.839C741.1 257.92 740.45 258.097 739.832 258.365C747.089 267.444 743.442 278.535 741.952 282.122Z" fill="black"/>
<path opacity="0.1" d="M737.34 281.997C738.016 282.116 738.68 282.301 739.323 282.549L739.329 282.549C745.867 271.008 739.518 262.157 736.293 258.728C735.615 258.723 734.945 258.875 734.33 259.173C741.263 267.386 738.98 277.388 737.34 281.997Z" fill="black"/>
<path opacity="0.1" d="M731.595 284.47C731.929 284.408 732.161 284.282 732.242 284.044C732.415 283.535 733.358 283.309 734.366 283.129C740.103 272.672 735.288 264.461 731.99 260.562C730.959 260.48 729.82 260.047 729.396 260.255C729.384 260.262 729.371 260.267 729.357 260.271C737.019 269.581 733.032 281.092 731.595 284.47Z" fill="black"/>
<path opacity="0.1" d="M725.523 285.968C726.224 286.141 726.831 286.119 727.121 285.464C727.233 285.252 727.39 285.07 727.582 284.933C727.773 284.797 727.992 284.709 728.222 284.677L728.228 284.677C734.914 273.036 728.474 264.11 725.243 260.697C725.229 260.711 725.216 260.726 725.204 260.742C724.991 261.057 723.878 260.699 722.74 260.517C731.757 270.377 726.797 283.14 725.523 285.968Z" fill="black"/>
<path opacity="0.1" d="M719.056 285.487C719.49 285.012 720.314 285.381 721.114 285.522C728.066 273.972 722.031 265.025 718.685 261.354C717.913 261.28 717.136 261.297 716.368 261.405C724.079 270.397 720.628 281.589 719.056 285.487Z" fill="black"/>
<path opacity="0.1" d="M712.811 285.689C713.358 285.622 713.89 285.461 714.387 285.213C714.514 285.085 714.782 285.101 715.135 285.182L715.141 285.182C721.311 274.631 716.689 266.293 713.334 262.217C712.827 262.185 712.322 262.307 711.881 262.57C711.722 262.682 711.542 262.756 711.353 262.787C717.727 271.712 714.249 282.237 712.811 285.689Z" fill="black"/>
<path opacity="0.8" d="M565.773 300.13C566.228 274.974 553.319 254.32 536.94 253.998C520.56 253.675 506.913 273.806 506.457 298.961C506.002 324.116 518.911 344.77 535.29 345.093C551.67 345.416 565.317 325.285 565.773 300.13Z" fill="black"/>
<path opacity="0.1" d="M558.665 300.654C559.034 280.268 549.68 263.551 537.772 263.317C525.864 263.082 515.912 279.418 515.543 299.805C515.173 320.191 524.527 336.907 536.435 337.142C548.343 337.376 558.296 321.04 558.665 300.654Z" fill="black"/>
<path opacity="0.8" d="M558.685 299.515C559.054 279.129 549.7 262.413 537.793 262.178C525.885 261.943 515.932 278.28 515.563 298.666C515.194 319.052 524.548 335.769 536.456 336.003C548.364 336.238 558.316 319.902 558.685 299.515Z" fill="#E0E0E0"/>
<path opacity="0.8" d="M536.208 274.297C536.254 271.782 535.15 269.72 533.743 269.692C532.336 269.664 531.159 271.681 531.114 274.197C531.068 276.712 532.171 278.774 533.578 278.802C534.985 278.829 536.163 276.813 536.208 274.297Z" fill="black"/>
<path opacity="0.8" d="M525.297 313.951C525.343 311.435 524.239 309.373 522.832 309.346C521.426 309.318 520.248 311.335 520.203 313.85C520.157 316.366 521.261 318.427 522.667 318.455C524.074 318.483 525.252 316.466 525.297 313.951Z" fill="black"/>
<path opacity="0.8" d="M553.115 295.514C553.161 292.998 552.057 290.936 550.65 290.909C549.244 290.881 548.066 292.898 548.021 295.413C547.975 297.929 549.079 299.99 550.486 300.018C551.892 300.046 553.07 298.029 553.115 295.514Z" fill="black"/>
<path opacity="0.8" d="M545.174 321.936C545.22 319.421 544.116 317.359 542.709 317.331C541.303 317.304 540.125 319.32 540.08 321.836C540.034 324.351 541.138 326.413 542.544 326.441C543.951 326.469 545.129 324.452 545.174 321.936Z" fill="black"/>
<path opacity="0.8" d="M320.575 211.006C320.575 211.006 298.215 269.799 299.239 273.521C299.239 273.521 290.13 279.037 287.972 277.571C285.814 276.104 288.199 249.952 288.199 249.952L292.71 226.974L297.598 213.401L320.575 211.006Z" fill="#2E0808"/>
<path opacity="0.15" d="M320.575 211.006C320.575 211.006 298.215 269.799 299.239 273.521C299.239 273.521 290.13 279.037 287.972 277.571C285.814 276.104 288.199 249.952 288.199 249.952L292.71 226.974L297.598 213.401L320.575 211.006Z" fill="black"/>
<path opacity="0.8" d="M522.105 289.207C522.151 286.692 521.047 284.63 519.64 284.602C518.233 284.575 517.056 286.591 517.01 289.107C516.965 291.622 518.068 293.684 519.475 293.712C520.882 293.74 522.059 291.723 522.105 289.207Z" fill="black"/>
<path opacity="0.8" d="M540.646 300.584C540.755 294.609 537.502 289.701 533.382 289.619C529.262 289.538 525.835 294.316 525.727 300.29C525.618 306.264 528.871 311.173 532.991 311.255C537.111 311.336 540.538 306.558 540.646 300.584Z" fill="black"/>
<path opacity="0.8" d="M295.397 289.677C294.777 323.951 305.129 355.367 335.485 352.548C373.71 352.447 377.2 325.575 377.821 291.301C378.441 257.027 360.452 231.156 337.691 230.708C314.931 230.259 296.018 255.403 295.397 289.677Z" fill="black"/>
<path opacity="0.1" d="M295.158 289.731C295.638 263.195 307.085 242.137 322.791 234.186C342.696 238.542 357.621 262.813 357.055 294.083C356.546 322.171 354.106 345.283 332.205 352.768C304.197 353.266 294.559 322.833 295.158 289.731Z" fill="black"/>
<path opacity="0.1" d="M279.558 274.842C279.558 274.842 284.929 279.789 287.993 276.432C287.993 276.432 296.475 215.088 305.76 214.986L337.697 215.33C337.697 215.33 341.487 217.113 342.99 224.547L362.53 286.255L475.675 290.193L484.658 271.478L391.04 269.919L391.03 269.873C390.556 267.973 375.973 209.409 365.591 201.954C365.585 201.948 365.58 201.948 365.574 201.942C365.223 201.684 364.839 201.479 364.433 201.333C364.433 201.333 325.503 195.156 312.609 198.604C312.609 198.604 299.179 201.472 295.826 205.677C295.816 205.688 295.807 205.699 295.798 205.711C295.353 206.181 290.18 212.03 288.302 229.165L279.558 274.842Z" fill="black"/>
<path opacity="0.8" d="M279.537 275.98C279.537 275.98 284.908 280.927 287.972 277.571C287.972 277.571 296.454 216.226 305.739 216.124L337.676 216.469C337.676 216.469 341.466 218.252 342.97 225.686L362.509 287.394L475.655 291.332L484.637 272.617L391.019 271.057L391.009 271.011C390.536 269.111 375.952 210.548 365.57 203.093C365.565 203.087 365.559 203.087 365.554 203.081C365.203 202.823 364.819 202.618 364.413 202.472C364.413 202.472 325.483 196.294 312.588 199.742C312.588 199.742 299.158 202.61 295.806 206.816C295.796 206.827 295.786 206.838 295.778 206.85C295.332 207.319 290.159 213.169 288.282 230.304L279.537 275.98Z" fill="#2E0808"/>
<path opacity="0.1" d="M279.537 275.98C279.537 275.98 284.908 280.927 287.972 277.571C287.972 277.571 296.454 216.226 305.739 216.124L337.676 216.469C337.676 216.469 341.466 218.252 342.97 225.686L362.509 287.394L475.655 291.332L484.637 272.617L391.019 271.057L391.009 271.011C390.536 269.111 375.952 210.548 365.57 203.093C365.565 203.087 365.559 203.087 365.554 203.081C365.203 202.823 364.819 202.618 364.413 202.472C364.413 202.472 325.483 196.294 312.588 199.742C312.588 199.742 299.158 202.61 295.806 206.816C295.796 206.827 295.786 206.838 295.778 206.85C295.332 207.319 290.159 213.169 288.282 230.304L279.537 275.98Z" fill="black"/>
<path opacity="0.8" d="M350.076 210.163C352.708 215.626 374.973 282.702 374.973 282.702L391.019 271.057L391.009 271.012C390.536 269.111 375.937 210.485 365.554 203.081C358.698 204.165 348.287 206.454 350.076 210.163Z" fill="#2E0808"/>
<path opacity="0.8" d="M381.196 180.305L393.229 224.398L460.132 223.722L459.467 230.259C459.467 230.259 406.922 237.198 384.738 225.939L373.454 185.659L267.913 184.149L288.108 179.611L381.196 180.305Z" fill="#2E0808"/>
<path opacity="0.1" d="M381.196 180.305L393.229 224.398L460.132 223.722L459.467 230.259C459.467 230.259 406.922 237.198 384.738 225.939L373.454 185.659L267.913 184.149L288.108 179.611L381.196 180.305Z" fill="#E0E0E0"/>
<path opacity="0.1" d="M693.444 255.562C693.444 255.562 728.948 275.056 702.064 292.183L694.937 293.751C694.937 293.751 721.309 274.716 678.16 255.261L693.444 255.562Z" fill="black"/>
<path opacity="0.8" d="M692.352 255.54C692.352 255.54 727.856 275.035 700.972 292.161L693.845 293.73C693.845 293.73 720.218 274.695 677.068 255.239L692.352 255.54Z" fill="#C9CCD6"/>
<path opacity="0.8" d="M340.615 295.409C340.971 275.757 332.339 259.649 321.336 259.433C310.333 259.216 301.124 274.972 300.768 294.624C300.412 314.277 309.044 330.384 320.047 330.601C331.051 330.818 340.259 315.062 340.615 295.409Z" fill="black"/>
<path opacity="0.1" d="M335.834 296.083C336.123 280.157 329.872 267.118 321.872 266.96C313.873 266.803 307.154 279.586 306.866 295.513C306.577 311.44 312.829 324.478 320.828 324.636C328.827 324.794 335.546 312.01 335.834 296.083Z" fill="black"/>
<path opacity="0.8" d="M335.855 294.945C336.143 279.018 329.892 265.979 321.893 265.821C313.893 265.664 307.175 278.447 306.886 294.374C306.598 310.301 312.849 323.34 320.849 323.497C328.848 323.655 335.567 310.872 335.855 294.945Z" fill="#E0E0E0"/>
<path opacity="0.8" d="M320.804 275.292C320.84 273.327 320.103 271.719 319.158 271.7C318.212 271.682 317.417 273.26 317.382 275.225C317.346 277.19 318.084 278.799 319.029 278.817C319.974 278.836 320.769 277.258 320.804 275.292Z" fill="black"/>
<path opacity="0.8" d="M313.396 306.294C313.431 304.328 312.694 302.72 311.749 302.702C310.804 302.683 310.009 304.261 309.973 306.226C309.938 308.192 310.675 309.8 311.62 309.818C312.565 309.837 313.36 308.259 313.396 306.294Z" fill="black"/>
<path opacity="0.8" d="M332.121 291.831C332.156 289.865 331.419 288.257 330.474 288.238C329.529 288.22 328.734 289.798 328.698 291.763C328.663 293.728 329.4 295.337 330.345 295.355C331.29 295.374 332.085 293.796 332.121 291.831Z" fill="black"/>
<path opacity="0.8" d="M326.734 312.489C326.769 310.524 326.032 308.916 325.087 308.897C324.142 308.879 323.347 310.457 323.311 312.422C323.276 314.387 324.013 315.995 324.958 316.014C325.903 316.033 326.698 314.455 326.734 312.489Z" fill="black"/>
<path opacity="0.8" d="M311.3 286.971C311.336 285.006 310.598 283.397 309.653 283.379C308.708 283.36 307.913 284.938 307.878 286.903C307.842 288.869 308.579 290.477 309.524 290.496C310.47 290.514 311.265 288.936 311.3 286.971Z" fill="black"/>
<path opacity="0.8" d="M323.734 295.818C323.819 291.151 321.643 287.323 318.876 287.268C316.108 287.214 313.796 290.953 313.711 295.621C313.627 300.288 315.802 304.116 318.57 304.171C321.337 304.225 323.65 300.486 323.734 295.818Z" fill="black"/>
<path opacity="0.1" d="M612.858 142.438C612.858 142.438 552.227 143.521 473.218 164.462L612.858 142.438Z" fill="black"/>
<path opacity="0.8" d="M446.266 383.879C446.692 383.863 447.095 383.676 447.391 383.357C447.687 383.037 447.853 382.61 447.853 382.165C447.853 381.721 447.687 381.294 447.391 380.974C447.095 380.655 446.692 380.467 446.266 380.452C445.84 380.467 445.437 380.655 445.141 380.974C444.845 381.294 444.679 381.721 444.679 382.165C444.679 382.61 444.845 383.037 445.141 383.357C445.437 383.676 445.84 383.863 446.266 383.879V383.879Z" fill="#2E0808"/>
</g>
<path opacity="0.1" d="M855.08 559.505C866.376 559.505 875.534 557.89 875.534 555.898C875.534 553.906 866.376 552.292 855.08 552.292C843.784 552.292 834.626 553.906 834.626 555.898C834.626 557.89 843.784 559.505 855.08 559.505Z" fill="#FF6366"/>
<path d="M841.344 539.139C841.344 539.139 853.011 538.765 856.527 536.153C860.043 533.541 874.474 530.423 875.346 534.611C876.219 538.8 892.88 555.443 879.708 555.554C866.536 555.665 849.102 553.414 845.592 551.184C842.083 548.954 841.344 539.139 841.344 539.139Z" fill="#565353"/>
<path opacity="0.2" d="M879.943 554.096C866.771 554.207 849.337 551.956 845.827 549.726C843.155 548.028 842.09 541.935 841.733 539.124C841.487 539.135 841.344 539.139 841.344 539.139C841.344 539.139 842.083 548.954 845.592 551.184C849.102 553.414 866.536 555.665 879.708 555.554C883.51 555.522 884.824 554.111 884.751 552.021C884.223 553.284 882.773 554.072 879.943 554.096Z" fill="black"/>
<path opacity="0.1" d="M973.715 516.65C982.408 516.65 989.454 515.407 989.454 513.874C989.454 512.342 982.408 511.099 973.715 511.099C965.023 511.099 957.976 512.342 957.976 513.874C957.976 515.407 965.023 516.65 973.715 516.65Z" fill="#FF6366"/>
<path d="M963.145 500.979C963.145 500.979 972.123 500.69 974.829 498.68C977.535 496.671 988.639 494.271 989.31 497.494C989.982 500.717 1002.8 513.524 992.667 513.609C982.531 513.695 969.115 511.963 966.414 510.247C963.714 508.531 963.145 500.979 963.145 500.979Z" fill="#565353"/>
<path opacity="0.2" d="M992.847 512.487C982.711 512.573 969.296 510.841 966.595 509.125C964.539 507.818 963.719 503.13 963.445 500.966C963.255 500.975 963.145 500.979 963.145 500.979C963.145 500.979 963.714 508.531 966.414 510.247C969.115 511.963 982.531 513.695 992.667 513.609C995.592 513.585 996.603 512.499 996.548 510.891C996.141 511.862 995.025 512.469 992.847 512.487Z" fill="black"/>
<path opacity="0.1" d="M902.303 695.95C923.054 695.95 939.877 692.984 939.877 689.325C939.877 685.666 923.054 682.7 902.303 682.7C881.551 682.7 864.729 685.666 864.729 689.325C864.729 692.984 881.551 695.95 902.303 695.95Z" fill="#FF6366"/>
<path d="M877.069 658.539C877.069 658.539 898.502 657.851 904.961 653.053C911.421 648.255 937.931 642.527 939.533 650.221C941.135 657.915 971.743 688.489 947.545 688.693C923.347 688.896 891.32 684.761 884.874 680.665C878.427 676.569 877.069 658.539 877.069 658.539Z" fill="#565353"/>
<path opacity="0.2" d="M947.977 686.014C923.779 686.218 891.752 682.083 885.305 677.987C880.396 674.867 878.439 663.674 877.785 658.51C877.331 658.53 877.069 658.539 877.069 658.539C877.069 658.539 878.427 676.569 884.874 680.665C891.32 684.761 923.347 688.896 947.545 688.693C954.53 688.634 956.943 686.042 956.81 682.203C955.84 684.522 953.176 685.97 947.977 686.014Z" fill="black"/>
<path d="M1299.04 456.108C1299.04 482.413 1289.3 507.703 1271.85 526.699C1254.41 545.695 1230.6 556.93 1205.41 558.06C1180.21 559.189 1155.57 550.127 1136.63 532.762C1117.68 515.398 1105.9 491.074 1103.74 464.866C1103.59 463.208 1103.49 461.551 1103.44 459.869V459.782C1103.39 458.558 1103.37 457.333 1103.37 456.108C1103.38 429.05 1113.69 403.103 1132.03 383.974C1150.38 364.844 1175.26 354.097 1201.2 354.097C1227.14 354.097 1252.02 364.844 1270.37 383.974C1288.72 403.103 1299.03 429.05 1299.04 456.108V456.108Z" fill="#65617D"/>
<path opacity="0.2" d="M1299.04 456.108C1299.04 482.413 1289.3 507.703 1271.85 526.699C1254.41 545.695 1230.6 556.93 1205.41 558.06C1180.21 559.189 1155.57 550.127 1136.63 532.762C1117.68 515.398 1105.9 491.074 1103.74 464.866C1103.59 463.208 1103.49 461.551 1103.44 459.869V459.782C1103.39 458.558 1103.37 457.333 1103.37 456.108C1103.38 429.05 1113.69 403.103 1132.03 383.974C1150.38 364.844 1175.26 354.097 1201.2 354.097C1227.14 354.097 1252.02 364.844 1270.37 383.974C1288.72 403.103 1299.03 429.05 1299.04 456.108V456.108Z" fill="black"/>
<path d="M1201.2 511.77C1230.67 511.77 1254.56 486.849 1254.56 456.108C1254.56 425.368 1230.67 400.447 1201.2 400.447C1171.73 400.447 1147.83 425.368 1147.83 456.108C1147.83 486.849 1171.73 511.77 1201.2 511.77Z" fill="#DCE0ED"/>
<path d="M1201.2 489.505C1218.88 489.505 1233.22 474.553 1233.22 456.108C1233.22 437.664 1218.88 422.712 1201.2 422.712C1183.52 422.712 1169.18 437.664 1169.18 456.108C1169.18 474.553 1183.52 489.505 1201.2 489.505Z" fill="#65617D"/>
<path d="M776.744 456.108C776.745 482.413 767.007 507.703 749.561 526.699C732.116 545.695 708.312 556.93 683.115 558.06C657.919 559.19 633.278 550.127 614.334 532.762C595.39 515.398 583.607 491.074 581.444 464.866C581.302 463.208 581.195 461.551 581.147 459.869V459.782C581.1 458.558 581.076 457.333 581.076 456.108C581.085 429.05 591.396 403.103 609.743 383.974C628.089 364.844 652.969 354.097 678.91 354.097C704.852 354.097 729.731 364.844 748.078 383.974C766.424 403.103 776.735 429.05 776.744 456.108V456.108Z" fill="#65617D"/>
<path opacity="0.2" d="M776.744 456.108C776.745 482.413 767.007 507.703 749.561 526.699C732.116 545.695 708.312 556.93 683.115 558.06C657.919 559.19 633.278 550.127 614.334 532.762C595.39 515.398 583.607 491.074 581.444 464.866C581.302 463.208 581.195 461.551 581.147 459.869V459.782C581.1 458.558 581.076 457.333 581.076 456.108C581.085 429.05 591.396 403.103 609.743 383.974C628.089 364.844 652.969 354.097 678.91 354.097C704.852 354.097 729.731 364.844 748.078 383.974C766.424 403.103 776.735 429.05 776.744 456.108V456.108Z" fill="black"/>
<path d="M678.907 511.77C708.38 511.77 732.271 486.849 732.271 456.108C732.271 425.368 708.38 400.447 678.907 400.447C649.435 400.447 625.544 425.368 625.544 456.108C625.544 486.849 649.435 511.77 678.907 511.77Z" fill="#DCE0ED"/>
<path d="M678.907 489.505C696.591 489.505 710.926 474.553 710.926 456.108C710.926 437.664 696.591 422.712 678.907 422.712C661.224 422.712 646.889 437.664 646.889 456.108C646.889 474.553 661.224 489.505 678.907 489.505Z" fill="#65617D"/>
<path d="M1329.55 436.987L1296.91 435.507L1267.1 377.773L1162.08 368.89L1110.98 438.467L1113.82 457.712L1106.72 475.477L773.196 478.437V469.555H770.357L767.519 456.232H793.066L774.615 435.507L709.329 377.773C709.329 377.773 597.207 380.733 595.787 377.773C594.368 374.812 602.174 344.464 602.174 344.464L650.429 329.661L815.064 316.337C851.256 256.383 883.899 228.256 883.899 228.256H1306.84L1326.71 334.842V335.093L1329.55 436.987Z" fill="#444053"/>
<path d="M1093.95 444.389C1093.95 444.389 1136.53 361.488 1169.17 361.488H1248.65C1248.65 361.488 1268.52 361.488 1277.04 377.772L1309.68 444.389H1284.13C1284.13 444.389 1262.84 382.214 1238.72 380.733C1214.59 379.253 1173.43 380.733 1173.43 380.733C1173.43 380.733 1159.24 380.733 1150.72 398.498C1142.21 416.262 1113.41 454.958 1113.41 454.958C1113.41 454.958 1082.6 465.114 1093.95 444.389Z" fill="#33323D"/>
<path d="M1348 431.066H1294.61L1294.07 475.476L1348 462.154V431.066Z" fill="#33323D"/>
<path d="M575.917 404.419C575.917 404.419 578.756 382.214 598.626 373.331L729.199 365.93C729.199 365.93 750.488 367.41 761.842 395.537L798.743 453.271V462.153H757.584C757.584 462.153 737.714 383.694 680.943 386.655H612.818C612.818 386.655 597.206 386.655 591.529 413.301L575.917 404.419Z" fill="#33323D"/>
<path d="M882.48 237.138H1318.2C1318.2 232.819 1316.55 228.677 1313.62 225.623C1310.69 222.569 1306.72 220.854 1302.58 220.854H898.092C896.041 220.854 894.011 221.275 892.117 222.093C890.223 222.912 888.502 224.111 887.052 225.623C885.603 227.135 884.453 228.93 883.668 230.906C882.883 232.882 882.48 234.999 882.48 237.138Z" fill="#33323D"/>
<path opacity="0.3" d="M976.723 324.94H856.152C854.794 324.94 853.457 324.586 852.263 323.91C851.07 323.234 850.057 322.258 849.317 321.07C848.576 319.882 848.133 318.521 848.025 317.108C847.918 315.696 848.151 314.278 848.703 312.984L867.782 268.208C870.725 261.3 875.526 255.431 881.603 251.312C887.68 247.193 894.772 245 902.02 245H975.276C976.623 245 977.958 245.277 979.202 245.815C980.447 246.352 981.578 247.14 982.53 248.134C983.483 249.128 984.239 250.307 984.754 251.606C985.27 252.904 985.535 254.295 985.535 255.701V315.749C985.535 316.956 985.307 318.151 984.864 319.266C984.422 320.381 983.773 321.394 982.954 322.248C982.136 323.101 981.165 323.778 980.096 324.24C979.026 324.702 977.881 324.94 976.723 324.94Z" fill="#D8D8D8" fill-opacity="0.6"/>
<path opacity="0.3" d="M1127.62 244.54H1021.96C1018.61 244.54 1015.89 247.373 1015.89 250.867V318.152C1015.89 321.646 1018.61 324.479 1021.96 324.479H1127.62C1130.97 324.479 1133.69 321.646 1133.69 318.152V250.867C1133.69 247.373 1130.97 244.54 1127.62 244.54Z" fill="#D8D8D8" fill-opacity="0.6"/>
<path d="M1326.71 334.841V335.094L1143.62 337.802L1138.86 228.256H1306.84L1326.71 334.841Z" fill="#33323D"/>
<path opacity="0.3" d="M1288 244.54H1165.3C1161.95 244.54 1159.24 247.373 1159.24 250.867V318.152C1159.24 321.646 1161.95 324.479 1165.3 324.479H1288C1291.35 324.479 1294.07 321.646 1294.07 318.152V250.867C1294.07 247.373 1291.35 244.54 1288 244.54Z" fill="#D8D8D8" fill-opacity="0.6"/>
<path d="M991.255 352.606H949.693C948.629 352.606 947.766 353.506 947.766 354.616V359.478C947.766 360.588 948.629 361.488 949.693 361.488H991.255C992.32 361.488 993.183 360.588 993.183 359.478V354.616C993.183 353.506 992.32 352.606 991.255 352.606Z" fill="#33323D"/>
<path d="M1121.83 352.606H1080.27C1079.2 352.606 1078.34 353.506 1078.34 354.616V359.478C1078.34 360.588 1079.2 361.488 1080.27 361.488H1121.83C1122.89 361.488 1123.76 360.588 1123.76 359.478V354.616C1123.76 353.506 1122.89 352.606 1121.83 352.606Z" fill="#33323D"/>
<path d="M592.257 571.196C592.258 587.024 586.399 602.242 575.901 613.673C565.404 625.103 551.08 631.864 535.918 632.544C520.757 633.224 505.929 627.77 494.53 617.321C483.131 606.873 476.04 592.236 474.739 576.465C474.653 575.468 474.589 574.47 474.561 573.458V573.406C474.532 572.669 474.518 571.932 474.518 571.196C474.538 554.924 480.749 539.326 491.787 527.828C502.825 516.329 517.787 509.871 533.388 509.871C548.988 509.871 563.95 516.329 574.988 527.828C586.026 539.326 592.237 554.924 592.257 571.196Z" fill="#65617D"/>
<path d="M533.386 604.689C551.12 604.689 565.497 589.693 565.497 571.196C565.497 552.698 551.12 537.703 533.386 537.703C515.652 537.703 501.275 552.698 501.275 571.196C501.275 589.693 515.652 604.689 533.386 604.689Z" fill="#DCE0ED"/>
<path d="M533.386 591.292C544.027 591.292 552.652 582.294 552.652 571.196C552.652 560.097 544.027 551.1 533.386 551.1C522.745 551.1 514.119 560.097 514.119 571.196C514.119 582.294 522.745 591.292 533.386 591.292Z" fill="#65617D"/>
<path d="M378.785 454.587L237.026 457.565V435.735C238.296 418.192 255.543 412.036 271.285 410.109C283.558 408.655 295.984 409.627 307.912 412.974C337.989 421.28 357.17 422.888 366.59 423.044C368.662 423.077 370.659 423.855 372.245 425.246C373.831 426.638 374.909 428.557 375.295 430.681C375.745 433.174 376.187 435.891 376.601 438.57C376.915 440.669 377.215 442.738 377.486 444.666C378.264 450.256 378.785 454.587 378.785 454.587Z" fill="#65617D"/>
<path d="M491.879 575.163H197.394C195.12 575.187 192.89 574.514 190.98 573.226C189.071 571.938 187.567 570.093 186.655 567.921C184.435 562.391 187.54 558.863 190.851 556.794C197.626 552.605 202.763 546.05 205.35 538.291C208.49 528.652 211.558 513.476 212.764 489.822C214.006 465.357 222.498 453.263 231.674 447.405H231.681C243.534 439.843 256.528 442.679 256.528 442.679L375.93 443.676C378.056 444.682 380.022 446.019 381.76 447.643C392.4 457.974 376.886 471.461 376.886 471.461C343.584 508.176 368.795 545.391 368.795 545.391H429.891C441.306 545.452 452.469 541.888 461.895 535.172C470.151 529.225 473.347 523.464 474.582 519.981C475.524 517.316 476.48 514.659 477.622 512.084C493.649 475.83 474.318 416.852 465.976 394.798C463.907 389.313 462.515 386.113 462.515 386.113L481.675 384.602L493.791 383.642L493.913 383.634C520.615 431.671 530.54 481.032 533.88 517.607C534.194 521.053 534.451 524.395 534.658 527.602C535.038 533.703 534.213 539.82 532.234 545.575C530.256 551.33 527.166 556.599 523.156 561.058C519.145 565.516 514.3 569.069 508.92 571.495C503.54 573.921 497.74 575.169 491.879 575.163V575.163Z" fill="#FF6366"/>
<path opacity="0.1" d="M377.486 444.666H237.026V438.57H376.601C376.915 440.669 377.215 442.738 377.486 444.666Z" fill="black"/>
<path opacity="0.1" d="M381.76 447.643H232.809C232.421 447.645 232.037 447.564 231.681 447.405C243.534 439.843 256.528 442.679 256.528 442.679L375.93 443.676C378.056 444.682 380.022 446.019 381.76 447.643Z" fill="black"/>
<path d="M383.002 440.062H180.694C179.081 440.062 177.773 441.426 177.773 443.108C177.773 444.791 179.081 446.155 180.694 446.155H383.002C384.615 446.155 385.923 444.791 385.923 443.108C385.923 441.426 384.615 440.062 383.002 440.062Z" fill="#DCE0ED"/>
<path opacity="0.1" d="M533.88 517.607C527.094 525.303 522.099 528.332 522.334 520.212C523.048 495.65 481.675 384.602 481.675 384.602L493.913 383.634C520.615 431.671 530.54 481.032 533.88 517.607Z" fill="black"/>
<path opacity="0.1" d="M591.901 564.467C584.872 566.224 576.181 568.01 565.463 569.647C561.481 570.258 557.209 570.843 552.647 571.404C541.708 572.759 529.056 573.942 514.442 574.85C510.303 575.111 506.005 575.346 501.548 575.557C493.199 575.952 484.263 576.254 474.739 576.465L474.56 573.458V573.406C487.869 567.802 508.805 552.849 512.18 513.9C520.591 510.52 529.633 509.198 538.61 510.036C547.588 510.875 556.261 513.851 563.962 518.736C571.663 523.621 578.187 530.284 583.031 538.212C587.874 546.141 590.909 555.123 591.901 564.467Z" fill="black"/>
<path d="M463.464 575.163C463.464 575.163 531.04 567.528 507.777 460.12C507.777 460.12 541.169 492.045 561.938 509.791C582.706 527.538 619.724 552.001 619.724 552.001C619.724 552.001 597.616 573.551 463.464 575.163Z" fill="#FF6366"/>
<path opacity="0.1" d="M463.464 575.163C463.464 575.163 531.04 567.528 507.777 460.12C507.777 460.12 541.169 492.045 561.938 509.791C582.706 527.538 619.724 552.001 619.724 552.001C619.724 552.001 597.616 573.551 463.464 575.163Z" fill="white"/>
<path d="M282.93 632.6C315.443 632.6 341.8 605.108 341.8 571.196C341.8 537.283 315.443 509.792 282.93 509.792C250.417 509.792 224.06 537.283 224.06 571.196C224.06 605.108 250.417 632.6 282.93 632.6Z" fill="#65617D"/>
<path d="M282.93 604.689C300.664 604.689 315.041 589.693 315.041 571.196C315.041 552.698 300.664 537.703 282.93 537.703C265.196 537.703 250.819 552.698 250.819 571.196C250.819 589.693 265.196 604.689 282.93 604.689Z" fill="#DCE0ED"/>
<path d="M282.93 591.292C293.571 591.292 302.197 582.294 302.197 571.196C302.197 560.097 293.571 551.1 282.93 551.1C272.29 551.1 263.664 560.097 263.664 571.196C263.664 582.294 272.29 591.292 282.93 591.292Z" fill="#65617D"/>
<path opacity="0.1" d="M348.936 552.755C348.936 513.101 318.745 480.955 281.503 480.955C244.261 480.955 214.07 513.101 214.07 552.755C214.07 554.429 214.129 556.087 214.234 557.732H348.772C348.878 556.087 348.936 554.429 348.936 552.755Z" fill="black"/>
<path d="M346.438 551.518C346.438 513.332 317.366 482.377 281.503 482.377C245.64 482.377 216.568 513.332 216.568 551.518C216.568 553.129 216.624 554.726 216.726 556.31H346.28C346.382 554.726 346.438 553.129 346.438 551.518Z" fill="#FF6366"/>
<path opacity="0.1" d="M346.438 551.517C346.438 552.626 346.41 553.727 346.36 554.821C346.338 555.32 346.31 555.811 346.281 556.31H216.725C216.696 555.811 216.668 555.32 216.646 554.821C216.596 553.727 216.568 552.626 216.568 551.517C216.568 513.334 245.639 482.379 281.503 482.379C317.367 482.379 346.438 513.334 346.438 551.517Z" fill="white"/>
<path opacity="0.1" d="M346.36 554.821C346.338 555.32 346.31 555.811 346.281 556.31H216.725C216.696 555.811 216.668 555.32 216.646 554.821H346.36Z" fill="black"/>
<path opacity="0.1" d="M522.274 452.731C526.575 450.703 526.09 439.9 521.193 428.603C516.295 417.306 508.838 409.793 504.538 411.821C500.237 413.85 500.721 424.652 505.619 435.949C510.517 447.246 517.973 454.76 522.274 452.731Z" fill="black"/>
<path d="M522.988 451.987C527.288 449.958 526.804 439.156 521.906 427.859C517.008 416.562 509.552 409.048 505.251 411.077C500.951 413.105 501.435 423.908 506.333 435.205C511.23 446.502 518.687 454.015 522.988 451.987Z" fill="#DCE0ED"/>
<path opacity="0.1" d="M493.791 383.642V395.305H472.027C470.001 395.307 467.977 395.138 465.976 394.799C463.907 389.313 462.515 386.113 462.515 386.113L481.675 384.602L493.791 383.642Z" fill="black"/>
<path d="M493.791 393.815H472.027C452.914 393.815 437.419 378.899 437.419 360.498V357.407C437.419 339.007 452.914 324.091 472.027 324.091L493.791 326.152V393.815Z" fill="#FF6366"/>
<path d="M457.934 343.814C457.934 343.814 470.957 351.071 463.464 363.352C463.464 363.352 454.277 379.075 439.827 377.587L434.565 343.814C434.565 343.814 451.869 342.14 457.934 343.814Z" fill="#FF6366"/>
<path opacity="0.1" d="M452.935 343.158C455.003 343.243 457.026 343.809 458.856 344.816C460.685 345.823 462.276 347.246 463.509 348.978C465.828 352.327 467.211 357.212 463.464 363.352C463.464 363.352 454.277 379.075 439.827 377.587L434.565 343.814C440.671 343.231 446.805 343.012 452.935 343.158V343.158Z" fill="black"/>
<path opacity="0.1" d="M493.078 326.152C495.374 326.152 497.647 326.623 499.768 327.54C501.889 328.456 503.816 329.799 505.44 331.493C507.063 333.186 508.351 335.196 509.23 337.408C510.108 339.621 510.56 341.992 510.56 344.387V375.58C510.56 380.416 508.718 385.054 505.44 388.474C502.161 391.894 497.714 393.815 493.078 393.815V393.815V326.152V326.152Z" fill="black"/>
<path d="M493.791 326.152C498.428 326.152 502.875 328.073 506.153 331.493C509.432 334.912 511.274 339.551 511.274 344.387V375.58C511.274 380.416 509.432 385.054 506.153 388.474C502.875 391.894 498.428 393.815 493.791 393.815V326.152Z" fill="#DCE0ED"/>
<path d="M433.058 379.727C441.043 379.727 447.517 371.512 447.517 361.379C447.517 351.246 441.043 343.031 433.058 343.031C425.072 343.031 418.598 351.246 418.598 361.379C418.598 371.512 425.072 379.727 433.058 379.727Z" fill="#FF6366"/>
</g>
<defs>
<clipPath id="clip0_15:2">
<rect width="1220" height="678" fill="white" transform="translate(128 40)"/>
</clipPath>
</defs>
</svg>
